<svg id="Group_6" data-name="Group 6" xmlns="http://www.w3.org/2000/svg" width="210" height="210" viewBox="0 0 210 210">
  <g id="Group_7" data-name="Group 7" transform="translate(0 0)">
    <path id="Path_1" data-name="Path 1" d="M24.008,39.1a5.15,5.15,0,0,1-3.541-1.394l-10-9.549a4.637,4.637,0,0,1,0-6.761,5.188,5.188,0,0,1,7.083,0l6.463,6.178L30.471,21.4a5.188,5.188,0,0,1,7.083,0,4.637,4.637,0,0,1,0,6.761l-10,9.549A5.15,5.15,0,0,1,24.008,39.1" transform="translate(80.99 170.899)" fill="#22b573"/>
    <path id="Path_2" data-name="Path 2" d="M43.429,68.954A26.031,26.031,0,0,1,35.44,67.7a24.568,24.568,0,0,1-15.23-13.76L.361,6.551A4.7,4.7,0,0,1,3.151.345a5.094,5.094,0,0,1,6.5,2.664L29.49,50.4a14.749,14.749,0,0,0,9.15,8.25,15.5,15.5,0,0,0,12.5-1.289l41-23.491a25.959,25.959,0,0,1,25.719,0l41,23.491a15.57,15.57,0,0,0,12.51,1.289,14.757,14.757,0,0,0,9.14-8.25L200.355,3.009a5.082,5.082,0,0,1,6.5-2.664,4.719,4.719,0,0,1,2.79,6.207L189.8,53.943a24.56,24.56,0,0,1-15.24,13.76,25.905,25.905,0,0,1-20.839-2.158l-41-23.491a15.6,15.6,0,0,0-15.43,0l-41,23.491a25.9,25.9,0,0,1-12.86,3.409" transform="translate(0 0)" fill="#2d2d2d"/>
    <path id="Path_3" data-name="Path 3" d="M23.369,48.9c-10.634,0-19.3-8.26-19.3-18.411s8.663-18.42,19.3-18.42,19.3,8.26,19.3,18.42S34,48.9,23.369,48.9m0-27.282a9.1,9.1,0,0,0-9.294,8.871,9.1,9.1,0,0,0,9.294,8.861,9.1,9.1,0,0,0,9.294-8.861,9.1,9.1,0,0,0-9.294-8.871" transform="translate(36.635 103.146)" fill="#22b573"/>
    <path id="Path_4" data-name="Path 4" d="M140.989,9a50.13,50.13,0,0,0-45,27.31A50.13,50.13,0,0,0,51,9C23.428,9,1,30.419,1,56.746s22.428,47.745,50,47.745a50.13,50.13,0,0,0,45-27.31,50.13,50.13,0,0,0,45,27.31c27.568,0,50-21.418,50-47.745S168.557,9,140.989,9M51,94.942c-22.058,0-40-17.131-40-38.2s17.939-38.2,40-38.2,40,17.131,40,38.2-17.939,38.2-40,38.2m89.993,0c-22.058,0-40-17.131-40-38.2s17.939-38.2,40-38.2,40,17.131,40,38.2-17.939,38.2-40,38.2" transform="translate(9.005 76.862)" fill="#2d2d2d"/>
    <path id="Path_5" data-name="Path 5" d="M32.369,48.9c-10.634,0-19.3-8.26-19.3-18.411s8.663-18.42,19.3-18.42,19.3,8.26,19.3,18.42S43,48.9,32.369,48.9m0-27.282a9.1,9.1,0,0,0-9.294,8.871,9.1,9.1,0,0,0,9.294,8.861,9.1,9.1,0,0,0,9.294-8.861,9.1,9.1,0,0,0-9.294-8.871" transform="translate(117.623 103.146)" fill="#22b573"/>
  </g>
</svg>
